<svg id="Layer_1" data-name="Layer 1" xmlns="http://www.w3.org/2000/svg" viewBox="0 0 782.76 697.84"><defs><style>.cls-1{fill:#fdc615;}.cls-2{fill:#fff;}.cls-10,.cls-3{fill:#f0504f;}.cls-4{fill:#426db4;}.cls-5{fill:none;stroke:#fff;stroke-linecap:round;stroke-miterlimit:10;}.cls-6{fill:#d4a79b;}.cls-7{fill:#f0f0f8;}.cls-8{fill:#e4e4f3;}.cls-9{fill:#4e3c97;}.cls-10{opacity:0.36;}.cls-11{fill:#aaabd6;}.cls-12{fill:#94adcf;}.cls-13{fill:#b3b4b4;}.cls-14{fill:#e9c2ab;}.cls-15{fill:#3b5079;}.cls-16{fill:#f3776a;}</style></defs><path class="cls-1" d="M657.24,734.76c-.89-6.61-.71-14.75,5-18.14,8.44-5,17.26,5.19,25.51,10.46,1.9,1.21,4.08,2.21,6.31,2a9,9,0,0,0,5.6-3.42c5.07-6,5.3-14.61,4.48-22.41s-2.39-15.85,0-23.33,10.44-13.89,17.77-11.15c16.49,6.17,17-16.49,24.56-25.39,3.17-3.74,8.08-6.4,12.91-5.56s8.33,4.75,10.79,8.88c5.59,9.41,7.69,22.71,3.59,33.12-3.86,9.79-15.6,15.74-14.84,27.62.52,8.18,7.77,15.08,7.18,23.25-.49,6.82-6.33,12.18-7.59,18.9-1.7,9.05,5.22,18.24,3,27.17-1.47,5.8-6.56,10.13-8.18,15.89-2,7.1,1.68,14.42,2.73,21.72C758.27,830,747,847.16,730.65,849c-13.94,1.56-23.48-12.87-31.78-22.48A178.28,178.28,0,0,1,657.24,734.76Z" transform="translate(-568.94 -191.41)"/><path class="cls-2" d="M725,809.66h-.09a1.52,1.52,0,0,1-1.44-1.61l4.69-83.12a1.5,1.5,0,0,1,1.61-1.44,1.53,1.53,0,0,1,1.44,1.62l-4.69,83.11A1.53,1.53,0,0,1,725,809.66Z" transform="translate(-568.94 -191.41)"/><path class="cls-2" d="M727.73,761.05a1.54,1.54,0,0,1-1-.37l-21-18.4a1.53,1.53,0,1,1,2-2.3l21,18.39a1.53,1.53,0,0,1,.14,2.16A1.51,1.51,0,0,1,727.73,761.05Z" transform="translate(-568.94 -191.41)"/><path class="cls-3" d="M719.16,857.58c-6.79-1.38-13.78-6.1-20.63-9.73-14.95-7.92-18.13-21.39-80.45-19.33-29,1-14.33-33.32-34.66-54.1-6.42-6.56-12.82-14-14.26-23s4.37-19.83,13.54-20.32c5.5-.3,10.46,3,15.59,5s12.06,2.24,15.06-2.39c-4.08-5.47-9.89-9.34-14.79-14.09s-9.09-11.09-8.39-17.88c1.08-10.48,11.26-6.1,14.22-10.9,4-6.45-.24-20.65,2-28.88,5.26-19.29,34.64-32.23,49.92-15.57,17.69,19.28,15.19,51.12,13.75,77.36-2,36.48,35,41.17,51.1,62.84,11.62,15.63,29.92,44.47,15.39,63.64C731.09,857.4,725.21,858.81,719.16,857.58Z" transform="translate(-568.94 -191.41)"/><path class="cls-2" d="M734.61,862.46a1.5,1.5,0,0,1-1.19-.57L652.24,761.42a1.53,1.53,0,1,1,2.38-1.92L735.8,860a1.53,1.53,0,0,1-.23,2.15A1.5,1.5,0,0,1,734.61,862.46Z" transform="translate(-568.94 -191.41)"/><path class="cls-2" d="M694.65,815.34a1.64,1.64,0,0,1-.53-.09L646,797.73a1.53,1.53,0,1,1,1-2.87l48.13,17.52a1.52,1.52,0,0,1,.92,2A1.54,1.54,0,0,1,694.65,815.34Z" transform="translate(-568.94 -191.41)"/><path class="cls-2" d="M671.79,785.1a1.37,1.37,0,0,1-.52-.1l-48.13-17.51a1.53,1.53,0,0,1,1-2.88l48.14,17.52a1.53,1.53,0,0,1-.53,3Z" transform="translate(-568.94 -191.41)"/><path class="cls-2" d="M711.43,836.12h0a1.54,1.54,0,0,1-1.53-1.54l.12-42.33a1.52,1.52,0,0,1,1.53-1.52h0a1.53,1.53,0,0,1,1.53,1.53L713,834.59A1.53,1.53,0,0,1,711.43,836.12Z" transform="translate(-568.94 -191.41)"/><path class="cls-1" d="M1281.5,700.87c-13,2.53,33.9-15.65,20.88-13.12,7.71-17.93-23-14.91-16.06-33-19.88-.32-43.14-23.47-45-7.34,42.9-66.49-10.67-55-23.73-99.27-1.6-5.44-5.4-11.83-12.27-11.91-4.61,0-8.4,2.94-11,6.07-21.38,26,7.89,61.64-1.61,92-7.27,1.18-12.7-5-16.93-10s-12.66-9.78-18.26-5.83c-3.87,2.73-3.12,7.71-1.84,11.74a143.33,143.33,0,0,0,31.72,53.58c-6.24,3.54-14.41-.82-20.48-4.56s-16-6.54-20.19-1.37c-2.4,2.94-1.22,6.89.37,10.18a65.3,65.3,0,0,0,22.5,25.23c16.37,11-5.47,11.64-4.9,21.59.62,11,9.78,12.81,7.55,25.74-2.81,16.31-17.68,27.31,11,29.34,18.86,1.34,41.68-11.22,54.27-21.3,11.19-9,20.25-20.85,27.51-32.11C1267.51,732.77,1279.72,701.22,1281.5,700.87Z" transform="translate(-568.94 -191.41)"/><path class="cls-4" d="M1175.06,807.94a510.43,510.43,0,0,0,162.28-58.82c4.81-2.75,9.75-5.76,12.52-10.27s2.6-11-1.89-14.13c-3.57-2.5-8.52-2.24-13-1.87l-39.72,3.35a572.66,572.66,0,0,0,41.38-41.52c3.27-3.64,6.48-9.15,2.94-12.57-2-1.88-5.09-2.08-7.92-2.15l-21.32-.58a133.62,133.62,0,0,0,18-31.63c2-4.89,3.61-10.15,2.43-15.24s-6.09-9.82-11.78-9.42c-3,.21-5.72,1.77-8.17,3.4-20.12,13.4-33.1,35.31-34.37,58-.51,9.31-1,21.31-10.7,24.25-3.48,1-7.27.49-10.91.85-14,1.39-21.92,15.54-23.9,28.24s-.82,26.33-7.64,37.55c-2.9,4.76-7.1,8.77-10.1,13.48s-4.71,10.65-2.16,15.58,10.7,7.3,14.75,3.3" transform="translate(-568.94 -191.41)"/><path class="cls-2" d="M1204.4,770.68h-.18a1.53,1.53,0,0,1-1.35-1.69L1219,626.46a1.55,1.55,0,0,1,1.7-1.35,1.52,1.52,0,0,1,1.34,1.69l-16.12,142.52A1.52,1.52,0,0,1,1204.4,770.68Z" transform="translate(-568.94 -191.41)"/><path class="cls-5" d="M1247.05,672.28" transform="translate(-568.94 -191.41)"/><path class="cls-2" d="M1210.39,717.6a1.52,1.52,0,0,1-1.17-2.51l36.66-43.79a1.53,1.53,0,1,1,2.35,2l-36.66,43.8A1.54,1.54,0,0,1,1210.39,717.6Z" transform="translate(-568.94 -191.41)"/><path class="cls-2" d="M1214.39,682.33a1.52,1.52,0,0,1-1.22-.61L1190.63,652a1.53,1.53,0,0,1,2.44-1.85l22.54,29.75a1.53,1.53,0,0,1-.3,2.15A1.5,1.5,0,0,1,1214.39,682.33Z" transform="translate(-568.94 -191.41)"/><path class="cls-2" d="M1243.49,790.16a1.57,1.57,0,0,1-.7-.17,1.53,1.53,0,0,1-.66-2.06l48.74-94.46a1.53,1.53,0,0,1,2.72,1.41l-48.74,94.45A1.53,1.53,0,0,1,1243.49,790.16Z" transform="translate(-568.94 -191.41)"/><path class="cls-2" d="M1270.66,737.51a1.52,1.52,0,0,1-1.44-1l-7.28-19.9a1.53,1.53,0,0,1,2.88-1.05l7.27,19.9a1.54,1.54,0,0,1-.91,2A1.58,1.58,0,0,1,1270.66,737.51Z" transform="translate(-568.94 -191.41)"/><path class="cls-2" d="M1263.32,753.64a1.53,1.53,0,0,1-1.53-1.51,1.55,1.55,0,0,1,1.52-1.55l39.7-.29h0a1.53,1.53,0,0,1,0,3.06l-39.7.29Z" transform="translate(-568.94 -191.41)"/><path id="Hand" class="cls-6" d="M892.37,739.52c.5-1.51,1-3,1.55-4.5,18.71-51.82,65.69-88.37,114.81-113.31,17-8.6,34.9-16.54,47.73-30.57,29.19-31.94,20.3-84.63-17.68-105.26,17.64,9.58,68.67-10.21,41.21-30.37-6.5-4.76-14.68-6.49-21.94-10s-14.2-10.12-13.71-18.16c.22-3.52,1.86-6.79,3.84-9.71,8.66-12.74,23.9-20,32.07-33,1.8-2.89,3.26-6.2,3-9.59-.45-5.39-5.3-9.58-10.52-11-51.84-14.28-91.79,48.72-143.1,43-2.93-.33-6.07-.84-8.68.52-3,1.59-4.35,5.2-5.23,8.51a107.8,107.8,0,0,0,5,69.48c7.73,18.06,20.75,35.47,18.79,55-1.76,17.5-15.48,32.59-15.12,50.17.1,4.69,1.21,9.46,0,14-1.81,6.82-8.33,11.23-14.65,14.38-30.71,15.33-66.48,15.57-99.92,23.34-2.36.55-4.83,1.21-6.55,2.91-3,3-2.6,7.8-2.18,12,3.26,32.65-4.54,65.28-12.28,97.17L763.16,860.14c-.91,3.73-1.67,8.1.8,11,1.36,1.6,3.43,2.39,5.42,3.09a197.5,197.5,0,0,0,35.46,8.81c9.56,1.45,19.53,2.16,28.74-.77,14.32-4.56,24.62-17.27,31.32-30.72C882.09,817.05,880.44,776.17,892.37,739.52Z" transform="translate(-568.94 -191.41)"/><path id="Hand-2" data-name="Hand" class="cls-6" d="M822.29,543.37c6-15.88,13.79-31.09,19-47.24,4.2-13,6.72-26.47,8.8-40,3.81-24.62,3.83-49.45,4.84-74.34,12.73,5.91,27.32,19.85,29.48,33.73s-2.42,28-3.92,41.95c-3.72,34.45-4.77,72.06,16.06,99.74,7.87,10.47,18.13,18.91,26.36,29.1s14.54,23.13,12.32,36c-2.75,16-17.39,26.93-31.3,35.34a446.77,446.77,0,0,1-56.87,29c-11.56,4.9-13.37,10.09-29,10.25-8.56.09-20.23-28.83-17.07-64C804.54,594,808.23,580.54,822.29,543.37Z" transform="translate(-568.94 -191.41)"/><path class="cls-7" d="M1023.07,237.8H883.8A28.87,28.87,0,0,0,855,266.59V406.28c61.35-55.07,123.88-108.81,189.09-159.23A28.68,28.68,0,0,0,1023.07,237.8Z" transform="translate(-568.94 -191.41)"/><path class="cls-8" d="M1044.1,247.05C978.89,297.47,916.36,351.21,855,406.28V607.47a28.88,28.88,0,0,0,28.79,28.8h139.27a28.88,28.88,0,0,0,28.79-28.8V266.59a28.62,28.62,0,0,0-7.48-19.26Z" transform="translate(-568.94 -191.41)"/><path class="cls-4" d="M1023.07,237.8H883.8A28.87,28.87,0,0,0,855,266.59V607.47a28.87,28.87,0,0,0,28.79,28.79h139.27a28.87,28.87,0,0,0,28.79-28.79V266.59A28.87,28.87,0,0,0,1023.07,237.8Zm16.3,332.5a28.87,28.87,0,0,1-28.79,28.79H896.29A28.87,28.87,0,0,1,867.5,570.3V280a28.87,28.87,0,0,1,28.79-28.79h114.29A28.87,28.87,0,0,1,1039.37,280Z" transform="translate(-568.94 -191.41)"/><rect class="cls-8" x="364.31" y="52.22" width="40.37" height="3.28" rx="1.05"/><circle class="cls-9" cx="384.49" cy="425.04" r="10.21"/><g id="Touch"><circle class="cls-10" cx="388.44" cy="226.06" r="54.64"/><circle class="cls-10" cx="388.44" cy="226.06" r="41.37"/><circle class="cls-3" cx="388.44" cy="226.06" r="22.34"/></g><g id="Wifi"><path class="cls-11" d="M1090.05,250.49a3.06,3.06,0,0,1-3.07-3.06,50,50,0,0,0-49.9-49.9,3.06,3.06,0,1,1,0-6.12,56.09,56.09,0,0,1,56,56A3.06,3.06,0,0,1,1090.05,250.49Z" transform="translate(-568.94 -191.41)"/><path class="cls-11" d="M1072.88,250.49a3.06,3.06,0,0,1-3.06-3.06,30.67,30.67,0,0,0-30.63-30.64,3.06,3.06,0,1,1,0-6.12,36.8,36.8,0,0,1,36.75,36.76A3.06,3.06,0,0,1,1072.88,250.49Z" transform="translate(-568.94 -191.41)"/></g><g id="Element"><rect class="cls-12" x="546.32" y="82.86" width="87.58" height="13.73" rx="5.65"/><rect class="cls-12" x="546.32" y="106.16" width="87.58" height="13.73" rx="5.65"/><rect class="cls-12" x="546.32" y="129.47" width="87.58" height="13.73" rx="5.65"/><rect class="cls-12" x="546.32" y="152.77" width="87.58" height="13.73" rx="5.65"/></g><g id="Element-2" data-name="Element"><rect class="cls-13" x="32.68" y="173.7" width="189.46" height="18.67" rx="5.65"/><rect class="cls-13" x="103.05" y="205.39" width="119.09" height="18.67" rx="5.65"/><rect class="cls-13" x="109.17" y="276.44" width="112.97" height="18.67" rx="5.65"/><rect class="cls-13" x="151.12" y="308.13" width="71.01" height="18.67" rx="5.65"/></g><path id="Hand-3" data-name="Hand" class="cls-14" d="M1116.25,732.09a198.33,198.33,0,0,1-1.69-22.35c-.89-50,6.47-115.33-41.32-145.92-21.5-13.76-49.92-14.64-67.37-35.37-6.42-7.63-9.87-17.4-13.15-26.94Q977.41,456.95,963.16,412c-9.76,1.06-15.33,12.08-17.49,22-6.23,28.75,1.55,58.72,11.75,86.23s23,54.41,27.2,83.54c1.61,11-1.75,26.57-12.53,26.16-5.69-.22-10-5.33-12.92-10.41-11.82-20.65-15.34-50.11-37-58.72-5.73-2.27-13.91-1.45-15.79,4.61-1,3.27-2.1,6.77-.82,9.93,18,44.57,31.44,84.84,59.13,123.7,10.57,14.82,33,30.3,43.13,45.45,36.42,54.27,35.56,62.63,65.32,120.53,2,3.83,6-32.84,9.64-30.75s1.12,18.17,5.12,17.67c20.22-2.51,43.74,12.11,61.88,2.51,3-1.59,6.2-3.35,7.86-6.4s1.45-6.82,1.2-10.33C1154.53,778.44,1123.88,790.54,1116.25,732.09Z" transform="translate(-568.94 -191.41)"/><path class="cls-8" d="M1248.57,775a51.42,51.42,0,0,0-28.43-8.58H917.21c-.59,0-1.16.07-1.74.09,44.45,11.67,88.44,25.66,132,40.56C1115.74,834.37,1180.46,795.94,1248.57,775Z" transform="translate(-568.94 -191.41)"/><path class="cls-15" d="M1248.57,775c-68.11,21-132.83,59.38-201.11,32.07-43.55-14.9-87.54-28.89-132-40.56A51.76,51.76,0,0,0,917.21,870h302.93a51.74,51.74,0,0,0,28.43-95Z" transform="translate(-568.94 -191.41)"/><rect class="cls-4" x="88.43" y="618.67" width="350" height="79.17" rx="34.82"/><rect class="cls-2" x="957.62" y="826.48" width="3.59" height="29.68" rx="1.01" transform="matrix(0.63, -0.78, 0.78, 0.63, -867.74, 862.49)"/><rect class="cls-2" x="957.62" y="843.16" width="3.59" height="29.68" rx="1.01" transform="translate(449.83 -619.15) rotate(50.84)"/><rect class="cls-2" x="927.78" y="826.48" width="3.59" height="29.68" rx="1.01" transform="translate(-878.74 839.35) rotate(-50.84)"/><rect class="cls-2" x="927.78" y="843.16" width="3.59" height="29.68" rx="1.01" transform="translate(438.84 -596.01) rotate(50.84)"/><rect class="cls-2" x="895.2" y="826.48" width="3.59" height="29.68" rx="1.01" transform="translate(-890.74 814.1) rotate(-50.84)"/><rect class="cls-2" x="895.2" y="843.16" width="3.59" height="29.68" rx="1.01" transform="translate(426.83 -570.75) rotate(50.84)"/><path class="cls-16" d="M932.71,328.78a2.92,2.92,0,0,0,3.12,3.16,6,6,0,0,0,2.52-.47l.28,1.18a7.22,7.22,0,0,1-3,.57,4.23,4.23,0,0,1-4.48-4.59c0-2.74,1.62-4.9,4.27-4.9,3,0,3.76,2.61,3.76,4.28a5.85,5.85,0,0,1-.06.77Zm4.85-1.18a2.36,2.36,0,0,0-2.29-2.69,2.74,2.74,0,0,0-2.54,2.69Z" transform="translate(-568.94 -191.41)"/><polyline class="cls-16" points="382.63 130.8 382.63 129.12 380.97 129.12 380.97 132.15"/><path class="cls-3" d="M949.91,323.39v4.47c0,2.8-1.2,4-3.08,4-1.56,0-2.76-1-2.93-3.43l-1.48,1.28a4.09,4.09,0,0,0,4.36,3.49c2.74,0,4.79-1.6,4.79-5.49V322" transform="translate(-568.94 -191.41)"/><path class="cls-16" d="M943.88,328v-7.5h-1.65v7.46a9.35,9.35,0,0,0,.19,1.93l1.48-1.28C943.89,328.39,943.88,328.18,943.88,328Z" transform="translate(-568.94 -191.41)"/><path class="cls-3" d="M954.34,326.9c0-1.16,0-2.1-.07-3h1.48l.08,1.56h0a3.55,3.55,0,0,1,3.23-1.76c2.2,0,3.85,1.86,3.85,4.62,0,3.27-2,4.89-4.13,4.89a3.18,3.18,0,0,1-2.8-1.43h0v4.94h-1.64Zm1.64,2.43a4.45,4.45,0,0,0,.07.67,2.57,2.57,0,0,0,2.49,1.94c1.74,0,2.76-1.43,2.76-3.52,0-1.82-1-3.38-2.71-3.38a2.64,2.64,0,0,0-2.5,2,3,3,0,0,0-.11.68Z" transform="translate(-568.94 -191.41)"/><path class="cls-3" d="M966.88,321.38a1,1,0,0,1-2,0,1,1,0,0,1,1-1A1,1,0,0,1,966.88,321.38ZM965,333v-9.1h1.66V333Z" transform="translate(-568.94 -191.41)"/><path class="cls-3" d="M969.21,331.34a4.29,4.29,0,0,0,2.17.66c1.21,0,1.77-.61,1.77-1.36s-.47-1.22-1.69-1.67c-1.63-.58-2.41-1.48-2.41-2.57,0-1.47,1.19-2.67,3.14-2.67a4.58,4.58,0,0,1,2.24.56l-.41,1.2a3.62,3.62,0,0,0-1.86-.52c-1,0-1.53.56-1.53,1.24s.55,1.09,1.73,1.54c1.58.6,2.39,1.39,2.39,2.74,0,1.6-1.24,2.73-3.4,2.73a5.26,5.26,0,0,1-2.56-.62Z" transform="translate(-568.94 -191.41)"/></svg>